<?xml version="1.0" encoding="UTF-8" standalone="no"?>
<!DOCTYPE svg PUBLIC "-//W3C//DTD SVG 1.1//EN"
 "http://www.w3.org/Graphics/SVG/1.1/DTD/svg11.dtd">
<!-- Generated by graphviz version 2.38.0 (20140413.2041)
 -->
<!-- Title: controllers_diagram Pages: 1 -->
<svg width="412pt" height="483pt"
 viewBox="0.00 0.00 412.00 483.00" xmlns="http://www.w3.org/2000/svg" xmlns:xlink="http://www.w3.org/1999/xlink">
<g id="graph0" class="graph" transform="scale(1 1) rotate(0) translate(99 289.5)">
<title>controllers_diagram</title>
<polygon fill="none" stroke="none" points="-99,193.5 -99,-289.5 313,-289.5 313,193.5 -99,193.5"/>
<!-- _diagram_info -->
<g id="node1" class="node"><title>_diagram_info</title>
<text text-anchor="start" x="103" y="31.4" font-family="Times,serif" font-size="13.00">Controllers diagram</text>
<text text-anchor="start" x="103" y="45.4" font-family="Times,serif" font-size="13.00">Date: Jan 09 2017 &#45; 00:25</text>
<text text-anchor="start" x="103" y="59.4" font-family="Times,serif" font-size="13.00">Migration version: 20161124204523</text>
<text text-anchor="start" x="103" y="73.4" font-family="Times,serif" font-size="13.00">Generated by RailRoady 1.5.2</text>
<text text-anchor="start" x="103" y="87.4" font-family="Times,serif" font-size="13.00">http://railroady.prestonlee.com</text>
</g>
<!-- TreesController -->
<g id="node2" class="node"><title>TreesController</title>
<path fill="none" stroke="black" d="M-83,189C-83,189 51,189 51,189 57,189 63,183 63,177 63,177 63,-147 63,-147 63,-153 57,-159 51,-159 51,-159 -83,-159 -83,-159 -89,-159 -95,-153 -95,-147 -95,-147 -95,177 -95,177 -95,183 -89,189 -83,189"/>
<text text-anchor="middle" x="-16" y="-143.8" font-family="Times,serif" font-size="14.00">TreesController</text>
<polyline fill="none" stroke="black" points="-95,-136 63,-136 "/>
<text text-anchor="start" x="-87" y="-120.8" font-family="Times,serif" font-size="14.00">create</text>
<text text-anchor="start" x="-87" y="-105.8" font-family="Times,serif" font-size="14.00">destroy</text>
<text text-anchor="start" x="-87" y="-90.8" font-family="Times,serif" font-size="14.00">edit</text>
<text text-anchor="start" x="-87" y="-75.8" font-family="Times,serif" font-size="14.00">index</text>
<text text-anchor="start" x="-87" y="-60.8" font-family="Times,serif" font-size="14.00">new</text>
<text text-anchor="start" x="-87" y="-45.8" font-family="Times,serif" font-size="14.00">show</text>
<text text-anchor="start" x="-87" y="-30.8" font-family="Times,serif" font-size="14.00">update</text>
<text text-anchor="start" x="-87" y="-15.8" font-family="Times,serif" font-size="14.00">upload</text>
<polyline fill="none" stroke="black" points="-95,-8 63,-8 "/>
<polyline fill="none" stroke="black" points="-95,16 63,16 "/>
<text text-anchor="start" x="-87" y="31.2" font-family="Times,serif" font-size="14.00">_layout</text>
<text text-anchor="start" x="-87" y="46.2" font-family="Times,serif" font-size="14.00">get_classifier_model</text>
<text text-anchor="start" x="-87" y="61.2" font-family="Times,serif" font-size="14.00">get_instancias</text>
<text text-anchor="start" x="-87" y="76.2" font-family="Times,serif" font-size="14.00">get_numero_de_folhas</text>
<text text-anchor="start" x="-87" y="91.2" font-family="Times,serif" font-size="14.00">get_numero_de_variaveis</text>
<text text-anchor="start" x="-87" y="106.2" font-family="Times,serif" font-size="14.00">get_tamanho_da_arvore</text>
<text text-anchor="start" x="-87" y="121.2" font-family="Times,serif" font-size="14.00">get_test_mode</text>
<text text-anchor="start" x="-87" y="136.2" font-family="Times,serif" font-size="14.00">ler_texto</text>
<text text-anchor="start" x="-87" y="151.2" font-family="Times,serif" font-size="14.00">set_tree</text>
<text text-anchor="start" x="-87" y="166.2" font-family="Times,serif" font-size="14.00">set_up_instances_variable</text>
<text text-anchor="start" x="-87" y="181.2" font-family="Times,serif" font-size="14.00">tree_params</text>
</g>
<!-- NodesController -->
<g id="node3" class="node"><title>NodesController</title>
<path fill="none" stroke="black" d="M107.5,-19C107.5,-19 214.5,-19 214.5,-19 220.5,-19 226.5,-25 226.5,-31 226.5,-31 226.5,-175 226.5,-175 226.5,-181 220.5,-187 214.5,-187 214.5,-187 107.5,-187 107.5,-187 101.5,-187 95.5,-181 95.5,-175 95.5,-175 95.5,-31 95.5,-31 95.5,-25 101.5,-19 107.5,-19"/>
<text text-anchor="middle" x="161" y="-171.8" font-family="Times,serif" font-size="14.00">NodesController</text>
<polyline fill="none" stroke="black" points="95.5,-164 226.5,-164 "/>
<text text-anchor="start" x="103.5" y="-148.8" font-family="Times,serif" font-size="14.00">cenario</text>
<text text-anchor="start" x="103.5" y="-133.8" font-family="Times,serif" font-size="14.00">cenario_resultado</text>
<text text-anchor="start" x="103.5" y="-118.8" font-family="Times,serif" font-size="14.00">conditions_sub_trees</text>
<text text-anchor="start" x="103.5" y="-103.8" font-family="Times,serif" font-size="14.00">index</text>
<text text-anchor="start" x="103.5" y="-88.8" font-family="Times,serif" font-size="14.00">node_params</text>
<text text-anchor="start" x="103.5" y="-73.8" font-family="Times,serif" font-size="14.00">path_for_result</text>
<polyline fill="none" stroke="black" points="95.5,-66 226.5,-66 "/>
<polyline fill="none" stroke="black" points="95.5,-42 226.5,-42 "/>
<text text-anchor="start" x="103.5" y="-26.8" font-family="Times,serif" font-size="14.00">_layout</text>
</g>
<!-- ApplicationController -->
<g id="node4" class="node"><title>ApplicationController</title>
<path fill="none" stroke="black" d="M-64,-191C-64,-191 48,-191 48,-191 54,-191 60,-197 60,-203 60,-203 60,-273 60,-273 60,-279 54,-285 48,-285 48,-285 -64,-285 -64,-285 -70,-285 -76,-279 -76,-273 -76,-273 -76,-203 -76,-203 -76,-197 -70,-191 -64,-191"/>
<text text-anchor="middle" x="-8" y="-269.8" font-family="Times,serif" font-size="14.00">ApplicationController</text>
<polyline fill="none" stroke="black" points="-76,-262 60,-262 "/>
<polyline fill="none" stroke="black" points="-76,-238 60,-238 "/>
<polyline fill="none" stroke="black" points="-76,-214 60,-214 "/>
<text text-anchor="start" x="-68" y="-198.8" font-family="Times,serif" font-size="14.00">_layout</text>
</g>
</g>
</svg>
