<?xml version="1.0" encoding="UTF-8" standalone="no"?>
<!DOCTYPE svg PUBLIC "-//W3C//DTD SVG 1.1//EN"
 "http://www.w3.org/Graphics/SVG/1.1/DTD/svg11.dtd">
<!-- Generated by graphviz version 2.38.0 (20140413.2041)
 -->
<!-- Title: models_diagram Pages: 1 -->
<svg width="554pt" height="641pt"
 viewBox="0.00 0.00 553.50 641.00" xmlns="http://www.w3.org/2000/svg" xmlns:xlink="http://www.w3.org/1999/xlink">
<g id="graph0" class="graph" transform="scale(1 1) rotate(0) translate(4 637)">
<title>models_diagram</title>
<polygon fill="none" stroke="none" points="-4,4 -4,-637 549.5,-637 549.5,4 -4,4"/>
<!-- _diagram_info -->
<g id="node1" class="node"><title>_diagram_info</title>
<text text-anchor="start" x="8" y="-544.1" font-family="Times,serif" font-size="13.00">Models diagram</text>
<text text-anchor="start" x="8" y="-530.1" font-family="Times,serif" font-size="13.00">Date: Jan 09 2017 &#45; 00:25</text>
<text text-anchor="start" x="8" y="-516.1" font-family="Times,serif" font-size="13.00">Migration version: 20161124204523</text>
<text text-anchor="start" x="8" y="-502.1" font-family="Times,serif" font-size="13.00">Generated by RailRoady 1.5.2</text>
<text text-anchor="start" x="8" y="-488.1" font-family="Times,serif" font-size="13.00">http://railroady.prestonlee.com</text>
</g>
<!-- Tree -->
<g id="node2" class="node"><title>Tree</title>
<path fill="none" stroke="black" d="M279,-218.5C279,-218.5 499,-218.5 499,-218.5 505,-218.5 511,-224.5 511,-230.5 511,-230.5 511,-357.5 511,-357.5 511,-363.5 505,-369.5 499,-369.5 499,-369.5 279,-369.5 279,-369.5 273,-369.5 267,-363.5 267,-357.5 267,-357.5 267,-230.5 267,-230.5 267,-224.5 273,-218.5 279,-218.5"/>
<text text-anchor="middle" x="389" y="-354.3" font-family="Times,serif" font-size="14.00">Tree</text>
<polyline fill="none" stroke="black" points="267,-346.5 511,-346.5 "/>
<text text-anchor="start" x="275" y="-331.3" font-family="Times,serif" font-size="14.00">id :integer</text>
<text text-anchor="start" x="275" y="-316.3" font-family="Times,serif" font-size="14.00">name :character varying</text>
<text text-anchor="start" x="275" y="-301.3" font-family="Times,serif" font-size="14.00">leaf_number :integer</text>
<text text-anchor="start" x="275" y="-286.3" font-family="Times,serif" font-size="14.00">variable_numbers :integer</text>
<text text-anchor="start" x="275" y="-271.3" font-family="Times,serif" font-size="14.00">tree_size :integer</text>
<text text-anchor="start" x="275" y="-256.3" font-family="Times,serif" font-size="14.00">created_at :timestamp without time zone</text>
<text text-anchor="start" x="275" y="-241.3" font-family="Times,serif" font-size="14.00">updated_at :timestamp without time zone</text>
<text text-anchor="start" x="275" y="-226.3" font-family="Times,serif" font-size="14.00">user_id :integer</text>
</g>
<!-- Node -->
<g id="node3" class="node"><title>Node</title>
<path fill="none" stroke="black" d="M279,-0.5C279,-0.5 499,-0.5 499,-0.5 505,-0.5 511,-6.5 511,-12.5 511,-12.5 511,-169.5 511,-169.5 511,-175.5 505,-181.5 499,-181.5 499,-181.5 279,-181.5 279,-181.5 273,-181.5 267,-175.5 267,-169.5 267,-169.5 267,-12.5 267,-12.5 267,-6.5 273,-0.5 279,-0.5"/>
<text text-anchor="middle" x="389" y="-166.3" font-family="Times,serif" font-size="14.00">Node</text>
<polyline fill="none" stroke="black" points="267,-158.5 511,-158.5 "/>
<text text-anchor="start" x="275" y="-143.3" font-family="Times,serif" font-size="14.00">id :integer</text>
<text text-anchor="start" x="275" y="-128.3" font-family="Times,serif" font-size="14.00">tree_id :integer</text>
<text text-anchor="start" x="275" y="-113.3" font-family="Times,serif" font-size="14.00">variable :character varying</text>
<text text-anchor="start" x="275" y="-98.3" font-family="Times,serif" font-size="14.00">condition :character varying</text>
<text text-anchor="start" x="275" y="-83.3" font-family="Times,serif" font-size="14.00">result :character varying</text>
<text text-anchor="start" x="275" y="-68.3" font-family="Times,serif" font-size="14.00">level :integer</text>
<text text-anchor="start" x="275" y="-53.3" font-family="Times,serif" font-size="14.00">created_at :timestamp without time zone</text>
<text text-anchor="start" x="275" y="-38.3" font-family="Times,serif" font-size="14.00">updated_at :timestamp without time zone</text>
<text text-anchor="start" x="275" y="-23.3" font-family="Times,serif" font-size="14.00">ancestry :character varying</text>
<text text-anchor="start" x="275" y="-8.3" font-family="Times,serif" font-size="14.00">result_numbers :character varying</text>
</g>
<!-- Tree&#45;&gt;Node -->
<g id="edge1" class="edge"><title>Tree&#45;&gt;Node</title>
<path fill="none" stroke="#f85b20" d="M389,-210.243C389,-204.221 389,-198.111 389,-192.003"/>
<ellipse fill="none" stroke="#f85b20" cx="389" cy="-214.441" rx="4" ry="4"/>
<polygon fill="#f85b20" stroke="#f85b20" points="389,-191.742 393.5,-181.742 389,-186.742 389,-181.742 389,-181.742 389,-181.742 389,-186.742 384.5,-181.742 389,-191.742 389,-191.742"/>
</g>
<!-- User -->
<g id="node4" class="node"><title>User</title>
<path fill="none" stroke="black" d="M244.5,-406.5C244.5,-406.5 533.5,-406.5 533.5,-406.5 539.5,-406.5 545.5,-412.5 545.5,-418.5 545.5,-418.5 545.5,-620.5 545.5,-620.5 545.5,-626.5 539.5,-632.5 533.5,-632.5 533.5,-632.5 244.5,-632.5 244.5,-632.5 238.5,-632.5 232.5,-626.5 232.5,-620.5 232.5,-620.5 232.5,-418.5 232.5,-418.5 232.5,-412.5 238.5,-406.5 244.5,-406.5"/>
<text text-anchor="middle" x="389" y="-617.3" font-family="Times,serif" font-size="14.00">User</text>
<polyline fill="none" stroke="black" points="232.5,-609.5 545.5,-609.5 "/>
<text text-anchor="start" x="240.5" y="-594.3" font-family="Times,serif" font-size="14.00">id :integer</text>
<text text-anchor="start" x="240.5" y="-579.3" font-family="Times,serif" font-size="14.00">email :character varying</text>
<text text-anchor="start" x="240.5" y="-564.3" font-family="Times,serif" font-size="14.00">encrypted_password :character varying</text>
<text text-anchor="start" x="240.5" y="-549.3" font-family="Times,serif" font-size="14.00">reset_password_token :character varying</text>
<text text-anchor="start" x="240.5" y="-534.3" font-family="Times,serif" font-size="14.00">reset_password_sent_at :timestamp without time zone</text>
<text text-anchor="start" x="240.5" y="-519.3" font-family="Times,serif" font-size="14.00">remember_created_at :timestamp without time zone</text>
<text text-anchor="start" x="240.5" y="-504.3" font-family="Times,serif" font-size="14.00">sign_in_count :integer</text>
<text text-anchor="start" x="240.5" y="-489.3" font-family="Times,serif" font-size="14.00">current_sign_in_at :timestamp without time zone</text>
<text text-anchor="start" x="240.5" y="-474.3" font-family="Times,serif" font-size="14.00">last_sign_in_at :timestamp without time zone</text>
<text text-anchor="start" x="240.5" y="-459.3" font-family="Times,serif" font-size="14.00">current_sign_in_ip :inet</text>
<text text-anchor="start" x="240.5" y="-444.3" font-family="Times,serif" font-size="14.00">last_sign_in_ip :inet</text>
<text text-anchor="start" x="240.5" y="-429.3" font-family="Times,serif" font-size="14.00">created_at :timestamp without time zone</text>
<text text-anchor="start" x="240.5" y="-414.3" font-family="Times,serif" font-size="14.00">updated_at :timestamp without time zone</text>
</g>
<!-- User&#45;&gt;Tree -->
<g id="edge2" class="edge"><title>User&#45;&gt;Tree</title>
<path fill="none" stroke="#e7224b" d="M389,-398.281C389,-392.083 389,-385.919 389,-379.868"/>
<ellipse fill="none" stroke="#e7224b" cx="389" cy="-402.423" rx="4" ry="4"/>
<polygon fill="#e7224b" stroke="#e7224b" points="389,-379.802 393.5,-369.802 389,-374.802 389,-369.802 389,-369.802 389,-369.802 389,-374.802 384.5,-369.802 389,-379.802 389,-379.802"/>
</g>
</g>
</svg>
